<svg width="480" height="295" viewBox="0 0 480 295" fill="none" xmlns="http://www.w3.org/2000/svg">
<g clip-path="url(#clip0_1188_120)">
<path d="M465.531 92.5296L452.845 69.3407C445.792 72.9668 437.974 74.8554 430.041 74.8488V74.8488C416.792 74.8488 404.085 69.5929 394.716 60.2374C385.347 50.8819 380.083 38.1931 380.083 24.9624H324.659C324.659 31.5136 323.367 38.0006 320.856 44.0531C318.345 50.1056 314.665 55.605 310.026 60.2374C305.387 64.8698 299.88 68.5444 293.819 71.0514C287.758 73.5584 281.261 74.8488 274.701 74.8488C266.63 74.856 258.68 72.9033 251.534 69.159L225.029 117.465C232.318 121.921 238.339 128.171 242.516 135.616C246.694 143.061 248.887 151.453 248.886 159.987V159.987C248.89 168.444 246.739 176.764 242.635 184.162C238.531 191.561 232.609 197.795 225.426 202.277L239.509 227.912C239.509 227.912 311.244 137.189 465.531 92.5296Z" fill="#161616" stroke="#010101" stroke-width="2" stroke-miterlimit="10"/>
<path d="M274.845 244.42C281.406 244.42 287.903 245.71 293.965 248.218C300.026 250.725 305.534 254.4 310.173 259.033C314.812 263.666 318.492 269.166 321.002 275.219C323.512 281.272 324.804 287.76 324.803 294.312C324.803 294.356 324.803 294.405 324.803 294.455H380.073C380.071 287.902 381.362 281.413 383.871 275.359C386.381 269.305 390.061 263.803 394.7 259.169C399.339 254.535 404.847 250.859 410.91 248.351C416.972 245.843 423.469 244.552 430.031 244.552C438.059 244.541 445.97 246.47 453.088 250.176L479.267 202.41C472.027 197.942 466.051 191.7 461.906 184.277C457.762 176.854 455.586 168.497 455.587 159.998C455.582 151.502 457.753 143.146 461.891 135.723C466.03 128.301 472 122.057 479.234 117.586L465.532 92.5298C311.245 137.189 239.51 227.912 239.51 227.912L251.7 250.104C258.839 246.362 266.783 244.411 274.845 244.42Z" fill="black" stroke="#010101" stroke-width="2" stroke-miterlimit="10"/>
<path d="M352.222 247.014C400.516 247.014 439.667 207.92 439.667 159.695C439.667 111.47 400.516 72.376 352.222 72.376C303.928 72.376 264.777 111.47 264.777 159.695C264.777 207.92 303.928 247.014 352.222 247.014Z" fill="white" stroke="#010101" stroke-width="2" stroke-miterlimit="10"/>
<path d="M352.222 230.225C391.231 230.225 422.854 198.648 422.854 159.695C422.854 120.742 391.231 89.1641 352.222 89.1641C313.213 89.1641 281.59 120.742 281.59 159.695C281.59 198.648 313.213 230.225 352.222 230.225Z" fill="#010101" stroke="#010101" stroke-width="0.25" stroke-miterlimit="10"/>
<path d="M52.3245 88.1616H31.9375V196.824H52.3245V88.1616Z" fill="#D1D1D1" stroke="#010101" stroke-width="2" stroke-miterlimit="10"/>
<path d="M58.0664 122.587V196.824H72.0935V157.117L113.656 196.824V122.587H99.1439V161.375L58.0664 122.587Z" fill="#D3D3D3" stroke="#010101" stroke-width="2" stroke-miterlimit="10"/>
<path d="M119.797 122.587V196.824H133.824V157.117L175.392 196.824V122.587H160.874V161.375L119.797 122.587Z" fill="#D3D3D3" stroke="#010101" stroke-width="2" stroke-miterlimit="10"/>
<path d="M242.973 118.985H258.296L275.418 160.846L292.6 118.985H307.852L275.412 200.317L242.973 118.985Z" fill="#D3D3D3" stroke="#010101" stroke-width="2" stroke-miterlimit="10"/>
<path d="M376.218 148.552C378.992 147.094 381.315 144.907 382.936 142.226C384.556 139.546 385.413 136.475 385.413 133.344V126.993C385.413 117.503 376.273 107.23 366.769 107.23H336.883C327.379 107.23 318.239 117.503 318.239 126.993V133.344C318.243 136.54 319.14 139.671 320.829 142.386C322.518 145.101 324.931 147.291 327.798 148.712C322.389 151.069 317.786 154.951 314.552 159.882C311.319 164.813 309.597 170.578 309.596 176.472V183.594C309.596 191.629 312.792 199.334 318.481 205.015C324.171 210.697 331.887 213.888 339.934 213.888H364.584C372.631 213.888 380.347 210.697 386.037 205.015C391.726 199.334 394.922 191.629 394.922 183.594V176.494C394.915 170.513 393.135 164.668 389.806 159.695C386.478 154.723 381.75 150.845 376.218 148.552Z" fill="#D1D1D1" stroke="#010101" stroke-width="0.25" stroke-miterlimit="10"/>
<path d="M60.7081 30.107C58.6237 27.1062 55.8486 24.6486 52.6159 22.9407C49.3833 21.2328 45.7874 20.3243 42.1303 20.2916C42.1303 20.2916 30.646 19.7849 23.4642 30.107C23.4642 30.107 17.4353 38.1377 19.4486 48.1679C19.4486 48.1679 20.0002 51.8968 23.7566 58.49C23.7566 58.49 26.9117 65.0996 28.3459 69.9577C28.3459 69.9577 29.4987 73.6867 30.0724 75.6916C30.2673 77.0211 30.3632 78.3633 30.3592 79.707C30.3592 79.707 30.646 83.1495 34.6672 83.1495H49.5603C53.5649 83.1495 53.8517 79.707 53.8517 79.707C53.8478 78.3635 53.9418 77.0214 54.133 75.6916C54.7232 73.6867 55.8265 69.9467 55.8265 69.9467C57.2551 65.0721 60.3992 58.4789 60.3992 58.4789C64.117 51.8693 64.6906 48.1569 64.6906 48.1569C66.715 38.1377 60.7081 30.107 60.7081 30.107Z" fill="black" stroke="#010101" stroke-width="2" stroke-miterlimit="10"/>
<path d="M41.2715 0H43.3455L43.2793 15.1967H41.2715V0Z" fill="black"/>
<path d="M69.298 6.05322L71.0576 7.15483L62.9271 19.9996L61.2227 18.9365L69.298 6.05322Z" fill="black"/>
<path d="M84.9617 25.5571L85.8277 27.4409L71.9771 33.7311L71.1387 31.9079L84.9617 25.5571Z" fill="black"/>
<path d="M85.8508 51.8195L85.3985 53.8409L70.5605 50.47L70.9963 48.5146L85.8508 51.8195Z" fill="black"/>
<path d="M16.6417 6.05322L14.8711 7.15483L23.0458 19.9996L24.7612 18.9365L16.6417 6.05322Z" fill="black"/>
<path d="M0.893008 25.5571L0.0214844 27.4409L13.9438 33.7311L14.7877 31.9079L0.893008 25.5571Z" fill="black"/>
<path d="M0 51.8195L0.45231 53.8409L15.373 50.47L14.9317 48.5146L0 51.8195Z" fill="black"/>
<path d="M359.234 120.417H345.477C339.61 120.417 334.854 125.167 334.854 131.025C334.854 136.884 339.61 141.634 345.477 141.634H359.234C365.101 141.634 369.858 136.884 369.858 131.025C369.858 125.167 365.101 120.417 359.234 120.417Z" fill="#010101" stroke="#010101" stroke-width="0.25" stroke-miterlimit="10"/>
<path d="M363.563 161.705H340.882C331.447 161.705 323.799 169.342 323.799 178.764C323.799 188.185 331.447 195.822 340.882 195.822H363.563C372.998 195.822 380.646 188.185 380.646 178.764C380.646 169.342 372.998 161.705 363.563 161.705Z" fill="#010101" stroke="#010101" stroke-width="0.25" stroke-miterlimit="10"/>
<path d="M232.801 132.303C230.203 129.39 227.01 127.066 223.437 125.488C219.864 123.91 215.995 123.114 212.088 123.154C212.088 123.154 200.074 121.32 190.355 134.132C184.785 141.609 181.741 150.662 181.662 159.981C181.662 159.981 182.688 177.607 191.381 187.202C191.381 187.202 199.561 196.808 212.088 196.808C212.088 196.808 223.082 197.722 232.801 186.745C232.801 186.745 242.514 177.524 242.514 159.943C242.514 159.943 244.048 146.508 232.801 132.303ZM229.188 159.943C229.188 169.813 223.732 174.991 223.732 174.991C218.277 181.16 212.105 180.642 212.105 180.642C205.072 180.642 200.477 175.249 200.477 175.249C195.595 169.857 195.022 159.965 195.022 159.965C195.067 154.732 196.776 149.65 199.903 145.451C205.359 138.257 212.105 139.287 212.105 139.287C214.297 139.265 216.47 139.712 218.475 140.597C220.481 141.483 222.273 142.786 223.732 144.421C230.048 152.386 229.188 159.943 229.188 159.943V159.943Z" fill="#D3D3D3" stroke="#010101" stroke-width="2" stroke-miterlimit="10"/>
<path d="M28.9194 29.5341C28.9194 29.5341 32.3669 26.9509 34.3747 28.9833C34.3747 28.9833 36.9617 31.5611 34.3747 33.7533C34.3747 33.7533 30.6459 36.4357 29.2118 38.4462C29.2118 38.4462 26.3931 41.2553 25.5933 48.3276C25.5841 48.4041 25.5497 48.4753 25.4954 48.5301C25.4412 48.5849 25.3703 48.6202 25.2938 48.6302C25.2173 48.6403 25.1397 48.6247 25.073 48.5859C25.0064 48.5471 24.9546 48.4872 24.9258 48.4157C23.8283 45.4335 23.4503 42.235 23.8226 39.0796C23.9379 37.8461 24.2085 36.6321 24.628 35.4663C25.4078 33.0924 26.9075 31.0193 28.9194 29.5341V29.5341Z" fill="white"/>
</g>
<defs>
<clipPath id="clip0_1188_120">
<rect width="480" height="295" fill="white"/>
</clipPath>
</defs>
</svg>
