<svg width="1006" height="1428" viewBox="0 0 1006 1428" fill="none" xmlns="http://www.w3.org/2000/svg">
<path d="M8.26667 1424.97L0 1423.29L140.653 731.008L148.92 732.688L8.26667 1424.97" fill="#163560"/>
<path d="M121.867 800.248L139.334 803.848L155.107 727.088L137.64 723.501L121.867 800.248" fill="#163560"/>
<path d="M465.481 1342.38L489.081 1334.73C489.081 1334.73 493.987 1270.67 483.481 1193.9C476.841 1145.26 464.641 1092.58 442.561 1050.27C432.561 1031.13 420.547 1014.1 406.094 1000.54C406.094 1000.54 387.974 958.488 364.001 902.288C337.334 839.794 170.441 821.474 265.667 952.381C285.201 979.248 306.187 1026.53 331.334 1055.25C374.294 1104.34 404.614 1161.65 425.441 1212.1C455.201 1284.25 465.481 1342.38 465.481 1342.38" fill="#FFB27D"/>
<path d="M519.214 1345.95C526.374 1357.55 510.92 1368.91 491.814 1379.61C472.694 1390.31 480.614 1391.39 456.174 1409.58C431.734 1427.78 417.334 1425.78 413.587 1423.11C410.254 1420.75 420.24 1409.51 430.72 1397.22C432.04 1395.69 433.347 1394.11 434.667 1392.55C446.374 1378.53 448.107 1360.93 453.6 1342.69C458.8 1325.41 450.547 1282.43 450.547 1282.43L483.174 1256.51C483.174 1256.51 489.8 1295.59 493.454 1311.86C495.587 1321.43 503.414 1329.45 509.76 1335.35C513.2 1338.57 516.694 1341.87 519.214 1345.95" fill="#FFB27D"/>
<path d="M491.814 1379.61C472.694 1390.31 480.614 1391.39 456.174 1409.58C431.734 1427.78 417.334 1425.78 413.587 1423.11C410.254 1420.75 420.24 1409.51 430.72 1397.22L431.04 1397.34C431.04 1397.34 453.107 1394.38 471.947 1377.63C487.32 1363.99 499.227 1344.85 509.76 1335.35C513.2 1338.57 516.694 1341.87 519.214 1345.95C526.374 1357.55 510.92 1368.91 491.814 1379.61" fill="#1C468A"/>
<path d="M302.08 113.847C302.08 113.847 359.64 106.834 388.587 160.407C417.52 213.981 415.187 291.581 443.24 328.181C471.307 364.794 438.574 399.501 438.574 399.501L219.947 406.874C219.947 406.874 204.747 365.967 219.947 316.861C235.147 267.754 160.907 121.274 302.08 113.847" fill="#B64C41"/>
<path d="M107.281 763.98C109.534 772.527 116.854 791.834 122.547 791.82C127.187 791.82 128.841 768.194 134.814 763.167C143.467 755.9 150.52 740.634 151.64 736.94C153.96 729.314 156.134 727.727 156.134 727.727L156.12 727.714H156.147C156.147 727.714 225.281 601.34 230.681 568.98C232.454 558.447 236.974 537.327 242.294 513.66C248.067 487.927 254.774 459.18 259.827 437.647C237.76 433.354 213.347 431.834 193.454 431.447C189.4 457.634 185.774 484.394 182.64 507.647C178 542.234 174.467 569.06 172.294 574.82C166.28 590.594 149.707 675.66 134.094 719.82C132.307 724.154 127.227 735.474 121.681 739.327C114.734 744.114 105.054 755.42 107.281 763.98" fill="#FFB27D"/>
<path d="M207.587 457.701C211.56 396.621 258.84 330.954 258.84 330.954C258.84 330.954 260.547 330.781 263.494 330.501C265.12 330.354 266.507 329.301 267.067 327.767C268.827 322.941 269.347 312.381 269.32 301.367C269.28 284.554 267.987 266.714 267.987 266.714L324.707 255.487L328.08 254.821C327.974 283.341 333.374 304.794 339.214 316.767C342 322.461 347.427 326.368 353.707 327.248C365.88 328.954 387.32 332.594 401.774 338.634C408.787 341.567 414.147 345.061 416.014 349.167C431.587 383.407 203.6 518.781 207.587 457.701" fill="#FFB27D"/>
<path d="M267.986 266.714C267.986 266.714 269.28 284.554 269.32 301.367C301.053 300.474 317.826 271.527 324.706 255.487L267.986 266.714Z" fill="#E8945B"/>
<path d="M257.387 282.635C257.387 282.635 332.48 283.875 332.533 237.101C332.587 190.328 342.307 158.995 294.373 156.221C246.427 153.448 237.093 171.288 233.28 186.901C229.467 202.501 237.867 281.101 257.387 282.635" fill="#FFB27D"/>
<path d="M152.613 1372.65L176.707 1378.58C176.707 1378.58 214.6 1326.7 246.107 1255.9C266.053 1211.05 283.427 1159.85 286.933 1112.25C288.507 1090.71 287.253 1069.91 282.12 1050.77C282.12 1050.77 288.853 1005.49 298.067 945.074C308.293 877.901 321.547 792.034 331.947 728.888L325.667 727.034L223.16 667.088C223.16 667.088 176.053 774.461 188.093 935.888C190.56 969.008 183.493 1020.26 189.747 1057.91C200.44 1122.27 196.04 1186.95 187.173 1240.81C174.48 1317.82 152.613 1372.65 152.613 1372.65" fill="#FFB27D"/>
<path d="M235.52 160.887C247.107 146.847 255.867 149.9 260.787 154.114C301.04 131.78 328.294 164.94 328.294 164.94C333.32 198.5 357.52 217.714 357.52 217.714C357.52 217.714 344.147 224.82 312.281 218.06C274.454 210.034 264.054 167.407 262.547 161.874C257.961 165.98 248.92 174.927 246.174 183.687C242.427 195.594 240.747 220.114 233.601 219.287C233.601 219.287 218.107 181.994 235.52 160.887" fill="#B64C41"/>
<path d="M160.906 1094.7C251.573 1146.5 490.24 1064.01 490 1059.23C488.733 1033.89 465.8 881.248 438.866 735.581C422.306 646.008 378.213 612.554 385.266 606.901L385.373 606.794C412.56 587.501 434.333 383.727 416.2 349.247C415.333 347.567 413.813 346.034 411.746 344.554C411.893 344.407 411.92 344.341 411.92 344.341C394.946 331.968 360.266 328.181 360.266 328.181C360.266 328.181 341.573 373.941 335.853 381.101C298.853 427.327 232.386 406.461 241.44 377.661C244.693 367.181 261.493 334.167 263.533 330.487C263.64 330.314 258.826 330.941 258.826 330.941C247.68 332.421 239.786 333.541 234.106 334.527C222.946 336.421 220.186 337.754 217.413 339.887C207.626 349.674 194.893 373.981 193.88 417.367C193.493 433.501 176.693 611.634 231.053 608.554C232.28 608.474 231.226 611.394 228.88 616.901C221.2 634.541 199.413 678.808 193.106 735.581C172.546 920.314 160.906 1094.7 160.906 1094.7Z" fill="#F9DDBF"/>
<path d="M276.267 254.1C276.267 254.1 275.227 259.94 260.84 259.834C260.84 259.834 248.747 259.74 248.773 253.38C248.773 253.38 260.214 248.247 276.267 254.1Z" fill="white"/>
<path d="M196.414 1403.99C196.387 1417.62 177.281 1419.13 155.401 1418.17C133.521 1417.21 139.681 1422.29 109.321 1424.89C78.9605 1427.49 67.7739 1418.19 65.9872 1413.97C64.4005 1410.21 78.8005 1405.91 94.1872 1400.98C96.1205 1400.37 98.0674 1399.73 100.001 1399.09C117.334 1393.33 128.081 1379.27 142.361 1366.66C155.881 1354.7 171.494 1313.82 171.494 1313.82L212.867 1308.98C212.867 1308.98 197.934 1345.69 192.467 1361.43C189.241 1370.7 191.681 1381.63 193.974 1389.99C195.201 1394.54 196.427 1399.19 196.414 1403.99Z" fill="#FFB27D"/>
<path d="M155.401 1418.17C133.521 1417.21 139.681 1422.29 109.321 1424.89C78.9605 1427.49 67.7739 1418.19 65.9872 1413.97C64.4005 1410.21 78.8005 1405.91 94.1872 1400.98L94.4007 1401.25C94.4007 1401.25 114.721 1410.35 139.561 1406.03C159.801 1402.53 180.001 1392.53 193.974 1389.99C195.201 1394.54 196.427 1399.19 196.414 1403.99C196.387 1417.62 177.281 1419.13 155.401 1418.17Z" fill="#1C468A"/>
<path d="M160.906 1094.7C251.573 1146.5 490.24 1064.01 490 1059.23C488.733 1033.89 465.8 881.248 438.866 735.581C422.306 646.008 378.213 612.554 385.266 606.901C383.586 608.274 358.013 628.888 311.12 626.088C269.146 623.568 236.8 618.301 228.88 616.901C221.2 634.541 199.413 678.808 193.106 735.581C172.546 920.314 160.906 1094.7 160.906 1094.7" fill="#2B478B"/>
<path d="M385.373 606.794C385.373 606.794 311.133 637.781 231.053 608.554L226.986 621.101C226.986 621.101 309.373 649.714 388.586 617.154L385.373 606.794Z" fill="#163560"/>
<path d="M246.919 224.261H234.613C229 224.261 224.439 219.714 224.439 214.101V210.301C224.439 207.487 226.733 205.194 229.546 205.194H253.626C255.466 205.194 256.96 206.701 256.96 208.541V214.221C256.96 219.767 252.466 224.261 246.919 224.261Z" fill="#163560"/>
<path d="M283.614 224.261H295.92C301.534 224.261 306.081 219.714 306.081 214.101V210.301C306.081 207.487 303.8 205.194 300.987 205.194H276.907C275.067 205.194 273.561 206.701 273.561 208.541V214.221C273.561 219.767 278.067 224.261 283.614 224.261" fill="#163560"/>
<path d="M276.986 213.435C276.88 213.395 266.387 208.875 256.36 213.435L255.613 211.781C266.4 206.861 277.266 211.568 277.72 211.768L276.986 213.435Z" fill="#163560"/>
<path d="M467.24 558.114C468.12 557.047 428.146 544.074 404.68 549.674C390.693 553.021 396.386 569.821 407.84 571.008C419.306 572.194 459.6 567.434 467.24 558.114Z" fill="#FFB27D"/>
<path d="M398.347 553.608C398.347 553.608 385.387 570.874 385.387 579.048C385.387 587.208 392.427 606.181 399.307 604.074C406.2 601.968 409.094 583.794 410.147 579.567C411.2 575.354 419.134 572.447 420.947 566.661C422.76 560.874 423.053 558.501 423.053 558.501L398.347 553.608Z" fill="#FFB27D"/>
<path d="M433.427 389.221C433.227 389.127 536.268 561.287 523.001 593.154C509.748 625.021 500.014 597.847 488.454 585.194C486.454 583.007 394.054 463.701 396.974 444.447C399.894 425.181 433.427 389.221 433.427 389.221" fill="#FFB27D"/>
<path d="M384.16 579.968C384.16 579.968 339.467 585.594 335.24 588.768C331.027 591.928 320.813 613.208 321.867 619.768C322.933 626.314 337.36 636.621 342.28 636.621C347.213 636.621 349.013 625.714 353.587 623.248C358.16 620.794 362.467 620.208 365.987 619.261C372.693 617.461 385.387 611.634 385.387 611.634L384.16 579.968" fill="#FFB27D"/>
<path d="M587.04 366.288C587.04 366.288 528.2 525.448 502.88 537.741C477.547 550.034 384.16 579.968 384.16 579.968V616.568C384.16 616.568 479.187 618.074 526.334 604.301C573.494 590.528 634.894 539.114 634.894 539.114L587.04 366.288" fill="#233862"/>
<path d="M709.88 215.594L652.334 324.781L638.6 325.767L632.4 343.181L574.707 516.994C574.707 516.994 542.787 296.154 709.88 215.594Z" fill="#233862"/>
<path d="M613.881 312.127C613.881 312.127 550.241 546.741 544.107 770.607C544.107 770.607 596.894 789.007 679.814 774.434C763.161 759.794 613.881 312.127 613.881 312.127Z" fill="#233862"/>
<path d="M904 1427.05H961.213C968.427 1423.14 974.84 1414.19 976.867 1400.83C979.667 1382.41 1000.32 1372.35 1004.79 1357.27C1009.25 1342.21 986.36 1320.98 986.36 1320.98L982.52 1316.05L978.547 1310.93L940.573 1319.87C940.573 1319.87 939.626 1328.91 939.053 1340.43C938.64 1348.74 938.426 1358.35 938.893 1366.78C940.013 1386.87 933.267 1408.53 915.413 1412.43C902.2 1415.33 902.787 1423.15 904 1427.05" fill="#233862"/>
<path d="M571.961 1427.05H702.801C709.094 1419.37 706.774 1391.03 705.828 1381.78C705.628 1379.91 705.494 1378.83 705.494 1378.83C705.494 1378.83 660.814 1343.1 654.681 1370.46C654.494 1371.31 654.268 1372.15 654.014 1372.98C646.281 1398.58 611.601 1410.21 591.574 1413.45C578.548 1415.57 573.748 1422.33 571.961 1427.05" fill="#233862"/>
<path d="M596.895 696.701C596.895 696.701 603.681 781.354 611.654 883.101C622.494 1021.31 635.521 1191.1 636.815 1223.26C639.041 1279.11 647.988 1368.45 647.988 1368.45C647.988 1368.45 669.188 1389.67 711.641 1380.73C711.641 1380.73 749.468 1253.19 760.268 1118.26C760.441 1116.05 760.601 1113.82 760.774 1111.59C770.828 974.234 786.454 684.981 786.454 684.981L596.895 696.701Z" fill="#F99746"/>
<path d="M596.895 696.701C596.895 696.701 603.681 781.354 611.654 883.101L760.268 1118.26C760.441 1116.05 760.601 1113.82 760.774 1111.59C770.828 974.234 786.454 684.981 786.454 684.981L596.895 696.701" fill="#ED7D2B"/>
<path d="M627.881 706.754C627.881 706.754 750.161 1013.31 830.574 1157.38C910.974 1301.43 936.107 1341.65 936.107 1341.65C936.107 1341.65 982.174 1323.22 986.361 1310.65C986.361 1310.65 955.614 1032.53 901.761 964.727C871.334 926.421 835.601 811.461 833.921 771.247C832.241 731.047 823.027 651.474 823.027 651.474L627.881 706.754" fill="#F99746"/>
<path d="M658.32 259.861C706.107 274.941 788.787 234.248 788.787 234.248C788.787 234.248 744.72 201.181 747.04 132.434L710.08 162.208L684.987 182.434C684.987 182.434 685.094 194.354 687.827 215.248C688.334 219.061 688.92 223.168 689.614 227.568C690.16 231.074 688.614 234.608 685.601 236.475C668.187 247.248 658.32 259.861 658.32 259.861" fill="#FFB27D"/>
<path d="M591.614 703.754C593.054 704.954 594.721 705.675 596.641 705.675C614.587 705.421 666.921 715.394 711.187 710.848C748.521 707.261 781.561 696.208 817.041 680.301C821.747 678.194 832.588 672.408 832.348 667.141C832.188 661.368 831.614 653.008 830.894 642.475C828.387 605.848 824.014 542.861 828.281 470.194C829.041 456.661 829.441 443.234 829.494 430.021C829.867 331.541 810.334 244.914 771.094 215.594C771.094 215.594 743.721 230.941 724.787 236.994C706.241 242.928 696.667 241.728 687.054 235.354C687.054 235.354 668.307 244.661 660.307 253.394C641.761 273.608 627.281 300.448 617.707 338.968C609.561 371.741 601.947 419.541 599.307 480.794C598.121 508.554 590.428 702.794 591.614 703.754" fill="white"/>
<path d="M863.56 749.408C742.934 825.048 644.547 786.701 644.547 786.701C626.907 648.701 636.667 482.168 638.96 441.541C644.8 263.221 771.094 215.581 771.094 215.581L823.694 378.314L831.48 450.728L845.534 581.515L863.56 749.408" fill="#2B478B"/>
<path d="M684.986 182.434C684.986 182.434 685.093 194.354 687.826 215.247C715.64 210.474 747.186 165.527 747.186 165.527C733.026 161.434 720.626 160.7 710.08 162.207L684.986 182.434" fill="#ED975D"/>
<path d="M664.294 181.154C664.294 181.154 750.361 195.448 758.441 141.714C766.521 87.981 783.067 53.6342 728.454 42.2342C673.841 30.8209 660.054 49.7277 653.001 67.0077C645.948 84.2877 642.107 176.048 664.294 181.154" fill="#FFB27D"/>
<path d="M908.334 649.568C908.334 649.568 917.56 661.861 917.92 666.768C920.414 700.061 905.2 704.661 944.587 723.154C944.587 723.154 961.401 729.568 961.681 716.528C961.974 703.474 950.014 703.261 952.201 684.981C954.721 663.901 954.467 663.701 940.627 652.701L931.467 637.554L908.334 649.568" fill="#FFB27D"/>
<path d="M758.507 136.541C758.507 136.541 749.681 135.061 751.107 122.901C752.534 110.728 752.508 94.8343 742.614 97.7943C732.721 100.754 732.241 108.674 728.174 104.048C724.107 99.4343 724.028 79.941 694.601 78.581C665.174 77.2343 653.214 87.4743 639.521 81.4609C625.841 75.4476 625.107 54.7276 625.107 54.7276C625.107 54.7276 629.001 62.1277 634.881 64.4744C634.881 64.4744 612.054 33.2476 638.494 11.8343C664.921 -9.59241 691.881 4.43425 707.174 5.36759C740.881 7.39425 762.668 9.42092 773.668 31.5676C784.681 53.7276 780.134 115.221 758.507 136.541" fill="#2B478B"/>
<path d="M922.893 664.208C922.893 664.208 914 673.474 913.44 677.328C911.64 689.701 907.506 695.034 909.573 696.381C913.88 699.181 919.586 690.021 922.306 681.808C925.026 673.581 922.893 664.208 922.893 664.208Z" fill="#FFB27D"/>
<path d="M845.533 581.514C819.093 513.887 745.227 399.807 745.227 399.807L831.48 450.727L845.533 581.514" fill="#233862"/>
<path d="M931.8 658.981C916.96 661.875 900.88 660.701 900.88 660.701C900.88 660.701 856.826 524.635 851.159 512.195C847.493 504.168 791.32 446.995 752.013 407.541C728.88 384.315 721.373 349.781 732.759 319.048L771.093 215.595C771.093 215.595 800.866 233.021 832.346 287.341C871.24 354.435 914 462.501 921.6 480.075C944.32 532.581 952.2 650.315 952.2 650.315C952.2 650.315 943.453 656.715 931.8 658.981Z" fill="#2B478B"/>
<path d="M771.092 215.594L713.546 324.781L684.026 314.048L693.612 343.181L635.906 516.994C635.906 516.994 603.999 296.154 771.092 215.594" fill="#233862"/>
<path d="M658.32 150.66C658.32 150.66 661.667 159.514 670.054 159.754C678.427 159.994 684.894 151.847 684.894 151.847C684.894 151.847 666.707 147.634 658.32 150.66" fill="white"/>
<path d="M411.746 344.554C411.746 344.554 439.533 366.968 469.093 434.048C469.093 434.048 463.093 477.208 385.386 488.941C307.679 500.661 411.746 344.554 411.746 344.554" fill="#F9DDBF"/>
<path d="M223.653 336.781C223.653 336.781 195.067 341.128 182.4 396.968C169.72 452.808 171.6 482.834 171.6 482.834C171.6 482.834 184.747 499.261 202.107 495.034C219.467 490.808 223.653 336.781 223.653 336.781" fill="#F9DDBF"/>
<path d="M544.107 611.874C544.107 611.874 549.813 600.314 523.933 581.514C504.373 567.314 458.533 554.74 458.533 554.74L401.693 558.94C401.693 558.94 461 609.434 490 619.767C517.68 629.62 542.653 623.42 544.107 611.874Z" fill="#FFB27D"/>
</svg>
