<svg width="1015" height="1378" viewBox="0 0 1015 1378" fill="none" xmlns="http://www.w3.org/2000/svg">
<path d="M638.253 414.062C638.253 414.062 651.852 397.569 659.164 395.249C666.475 392.929 680.628 381.969 682.475 386.489C684.32 391.009 672.964 397.969 673.563 403.129C674.16 408.289 709.67 416.569 709.451 422.022C709.232 427.489 701.096 440.676 687.553 439.169C674.011 437.649 639.661 429.502 632.608 433.022C625.553 436.542 638.253 414.062 638.253 414.062" fill="#FFB27D"/>
<path d="M272.047 333.796C292.095 360.73 315.571 381.996 339.69 398.77C416.348 452.103 499.508 460.05 499.508 460.05C519.436 453.663 580.654 447.01 616.831 441.17H616.846C632.616 438.636 643.616 436.263 644.362 434.143L643.452 402.636C643.452 402.636 510.672 395.61 488.686 385.41C454.015 355.543 423.384 316.756 403.426 286.45C386.567 260.863 367.698 241.957 336.588 230.877C291.603 214.837 209.8 250.17 272.047 333.796" fill="#F9DDBF"/>
<path d="M332.922 378.943L339.69 398.77C416.349 452.103 499.509 460.05 499.509 460.05C515.517 460.05 580.654 447.01 616.831 441.17C615.401 441.29 518.334 448.876 496.884 446.663C475.271 444.423 374.658 357.223 374.658 357.223L332.922 378.943" fill="#EAC3A2"/>
<path d="M419.604 1377.52H272.868C262.354 1370.38 275.705 1300.68 275.705 1300.68C275.705 1300.68 315.753 1285.49 322.669 1316.38C329.606 1347.26 373.678 1357.08 397.004 1360.85C412.964 1363.45 418.008 1372.21 419.604 1377.52Z" fill="#233862"/>
<path d="M201.981 1377.52H55.2448C44.7315 1370.38 58.0808 1300.68 58.0808 1300.68C58.0808 1300.68 98.1288 1285.49 105.045 1316.38C111.983 1347.26 156.055 1357.08 179.379 1360.85C195.341 1363.45 200.385 1372.21 201.981 1377.52Z" fill="#233862"/>
<path d="M380.125 666.409C380.125 666.409 373.53 748.689 365.778 847.609C355.242 981.969 326.825 1315.12 326.825 1315.12C326.825 1315.12 308.194 1331.01 266.929 1322.32C266.929 1322.32 231.804 1207.38 221.3 1076.21C221.137 1074.06 220.974 1071.9 220.812 1069.73C211.041 936.196 195.848 655.009 195.848 655.009L380.125 666.409Z" fill="#2B478B"/>
<path d="M382.377 637.969C382.377 637.969 373.53 748.689 365.778 847.609L221.3 1076.21C221.137 1074.06 220.974 1071.9 220.812 1069.73C211.041 936.196 195.848 655.009 195.848 655.009L382.377 637.969Z" fill="#233862"/>
<path d="M340.265 637.969C340.265 637.969 235.48 898.809 201.981 997.676C178.12 1068.1 110.827 1315.17 110.827 1315.17C110.827 1315.17 81.5639 1324.08 56.9706 1306.86C56.9706 1306.86 31.9346 1054.44 82.5052 983.262C109.336 945.502 89.1732 590.729 197.957 587.702C306.744 584.662 340.265 637.969 340.265 637.969" fill="#2B478B"/>
<path d="M293.46 253.463C277.464 261.89 261.851 262.41 248.317 259.53C235.935 256.93 225.304 251.463 217.733 246.623C209.963 241.663 205.395 237.33 205.395 237.33C205.395 237.33 205.935 236.556 206.847 235.01C211.571 226.93 225.903 197.863 219.527 151.17C219.441 150.57 224.067 151.436 231.053 153.076C251.847 158.01 293.645 169.863 295.495 170.383H295.567C295.567 170.383 296.079 180.21 297.8 197.81C297.943 199.37 298.099 200.983 298.271 202.663C298.484 204.73 298.697 206.916 298.953 209.17C300.889 227.476 293.46 253.463 293.46 253.463" fill="#FFB27D"/>
<path d="M297.8 197.809C266.761 204.929 220.438 159.102 220.438 159.102C223.824 156.582 227.381 154.596 231.053 153.076C251.847 158.009 293.645 169.862 295.495 170.382H295.567C295.567 170.382 296.079 180.209 297.8 197.809Z" fill="#ED975D"/>
<path d="M308.347 167.903C308.347 167.903 295.583 172.49 279.311 174.676C255.515 177.89 224.225 175.996 214.395 147.196C197.837 98.743 176.688 69.6897 225.411 49.903C251.493 39.303 268.18 38.7431 279.513 42.7831C289.359 46.2764 295.164 53.2498 299.56 60.1431C309.021 74.9698 328.055 159.423 308.347 167.903Z" fill="#FFB27D"/>
<path d="M337.911 63.9694C309.699 84.2494 270.672 64.3027 258.542 69.7027C246.426 75.0894 244.248 95.4094 244.03 101.863C243.812 108.329 242.962 113.783 226.506 109.916C223.81 109.276 221.867 109.463 220.531 110.263C213.704 114.316 222.427 133.943 225.058 138.196C225.058 138.196 228.844 152.263 220.442 159.103C219.426 159.916 202.919 167.143 163.14 106.263C156.888 96.7028 150.919 75.1828 160.575 54.4495C170.219 33.7295 210.535 13.7028 244.719 3.07618C257.531 -0.897153 267.03 -0.750591 274.46 1.96941C286.854 6.50274 293.464 18.2095 300.02 29.9828C311.018 49.7428 337.911 63.9694 337.911 63.9694" fill="#A9453D"/>
<path d="M396.514 594.049C394.248 623.942 387.927 645.356 374.087 645.356C374.087 645.356 312.522 667.022 238.944 667.596C224.563 667.702 204.196 664.902 187.304 662.076C170.052 659.156 156.394 656.209 156.394 656.209C141.6 652.796 125.276 643.649 127.464 626.782C128.7 617.236 129.563 604.796 130.155 590.342C131.778 551.262 131.507 497.422 131.712 445.889C131.855 414.236 132.163 383.462 133.219 357.502C133.219 357.502 118.698 255.542 134.828 238.809C153.715 219.249 209.191 213.236 212.667 213.982C213.71 213.769 214.754 213.502 215.822 213.329C215.822 213.329 263.07 239.942 298.166 220.236C298.166 220.236 298.5 220.302 299.158 220.396C307.707 221.742 350.372 231.609 365.1 247.182C370.186 252.542 390.476 285.462 391.03 321.609C391.802 371.996 389.832 429.249 389.832 429.262C390.36 437.449 391.235 447.996 392.202 460.049C393.231 472.889 394.364 487.382 395.33 502.502C395.806 510.116 396.256 517.889 396.616 525.676C397.711 549.662 398.046 573.809 396.514 594.049" fill="#F9DDBF"/>
<path d="M212.902 214.036C212.902 214.036 265.184 267.956 302.564 256.916C302.564 256.916 307.544 249.636 290.709 247.303C273.874 244.969 255.704 245.916 212.902 214.036Z" fill="#EAC3A2"/>
<path d="M308.715 136.623C308.715 136.623 309.736 142.889 295.151 147.903C295.151 147.903 282.904 152.103 280.668 145.676C280.668 145.676 290.396 136.41 308.715 136.623" fill="white"/>
<path d="M179.76 403.556C179.76 403.556 179.862 549.396 130.154 590.343C131.777 551.263 131.506 497.423 131.712 445.889L179.76 403.556Z" fill="#EAC3A2"/>
<path d="M26.9442 676.569C26.9442 676.569 1.6335 716.302 0.213498 731.516C-0.750502 741.849 1.57218 782.622 6.73218 782.756C14.0175 782.956 21.3042 757.596 24.1242 751.022C26.9442 744.436 30.2348 739.262 33.0548 739.262C35.8762 739.262 26.9442 764.649 33.0548 761.836C39.1668 759.009 49.5081 735.516 50.4481 729.876C51.3881 724.222 44.9322 706.156 48.0828 699.036C51.2335 691.929 26.9442 676.569 26.9442 676.569" fill="#FFB27D"/>
<path d="M139.648 233.289C139.648 233.289 105.447 249.449 76.7725 369.049C55.1539 459.209 13.7832 689.436 13.7832 689.436L48.7805 703.836C48.7805 703.836 176.947 409.583 195.281 368.209C213.613 326.823 139.648 233.289 139.648 233.289" fill="#F9DDBF"/>
<path d="M769.26 403.556C769.26 403.556 803.1 568.969 815.98 596.009C828.847 623.049 880.354 720.329 880.354 720.329L865.327 730.756C865.327 730.756 772.5 634.663 769.26 624.329C766.034 614.009 705.258 485.196 705.258 485.196L769.26 403.556" fill="#FFB27D"/>
<path d="M704.028 151.102C704.028 151.102 638.424 72.2623 603.692 122.702C603.692 122.702 577.781 133.462 568.409 177.556C558.847 222.556 588.771 256.769 604.244 248.302C614.167 242.889 621.679 260.249 621.679 260.249L704.028 151.102Z" fill="#233862"/>
<path d="M610.86 114.716C610.86 114.716 602.04 79.4358 550.217 90.4492C550.217 90.4492 575.026 87.3291 581.825 96.8891C581.825 96.8891 562.162 87.8891 549.85 95.4225C537.538 102.956 535.516 128.316 537.354 136.036C539.192 143.742 552.79 166.716 561.794 166.716C570.8 166.716 581.458 158.809 581.458 158.809L610.86 114.716Z" fill="#233862"/>
<path d="M533.314 666.93C559.081 609.143 571.408 592.796 571.838 574.61C572.18 560.236 565.09 544.73 551.318 506.69C548.077 497.716 545.84 488.503 544.461 479.183C533.569 405.85 575.977 326.57 602.333 321.17C609.666 319.236 622.098 292.743 621.945 250.063L625.246 250.716L680.745 261.703C680.745 261.703 679.484 279.17 679.445 295.623C679.408 309.343 680.236 322.343 683.341 323.97C687.337 324.33 689.694 324.57 689.694 324.57C689.694 324.57 735.969 388.836 739.862 448.61C743.754 508.383 702.804 534.343 740.17 653.796C778.326 775.783 519.08 698.85 533.314 666.93Z" fill="#FFB27D"/>
<path d="M680.745 261.703C680.745 261.703 679.483 279.17 679.445 295.623C648.389 294.756 631.973 266.423 625.246 250.716L680.745 261.703Z" fill="#E8945B"/>
<path d="M619.515 244.677C619.515 244.677 603.239 218.957 599.334 196.97C596.544 181.277 604.54 123.077 663.016 131.463C663.016 131.463 680 133.143 695.964 143.917C708.66 152.49 726.983 171.01 706.496 221.783L701.175 238.943L619.515 244.677" fill="#233862"/>
<path d="M691.117 277.29C691.117 277.29 617.638 278.503 617.587 232.73C617.537 186.957 608.018 156.29 654.931 153.583C701.843 150.877 710.978 168.33 714.71 183.597C718.443 198.877 710.23 275.797 691.117 277.29Z" fill="#FFB27D"/>
<path d="M688.399 152.462C688.399 152.462 668.279 206.156 637.405 214.102C606.529 222.036 593.137 213.769 593.137 213.769C593.137 213.769 616.819 194.956 621.734 162.102C621.734 162.102 673.222 126.902 688.399 152.462Z" fill="#233862"/>
<path d="M683.412 156.823C683.412 156.823 698.436 168.81 702.099 180.463C705.763 192.116 707.411 216.116 714.403 215.303C714.403 215.303 729.561 178.796 712.527 158.156C694.464 136.263 683.412 156.823 683.412 156.823" fill="#233862"/>
<path d="M598.377 1221.44C616.863 1294.97 644.693 1351.34 644.693 1351.34L668.924 1349.66C668.924 1349.66 657.043 1293.14 657.724 1216.76C658.204 1163.36 664.807 1100.25 685.907 1040C758.408 832.929 746.692 682.223 746.692 682.223L610.348 698.169L603.996 698.916C603.429 761.529 601.812 846.556 600.397 913.036C599.148 972.823 598.049 1017.61 598.049 1017.61C571.836 1074.06 581.356 1153.76 598.377 1221.44Z" fill="#163560"/>
<path d="M437.752 728.303L459.811 734.916C459.811 734.916 532.579 614.183 539.196 582.769C541.355 572.543 546.645 552.063 552.82 529.143C565.599 481.649 582.089 423.543 582.089 423.543L587.519 400.023L606.043 319.796C606.043 319.796 570.573 323.423 549.828 332.103C542.959 334.969 537.719 338.383 535.888 342.396C520.647 375.916 505.432 460.489 494.737 520.823C488.776 554.449 484.231 580.543 481.857 586.076C475.24 601.503 455.025 686.409 437.752 728.303" fill="#FFB27D"/>
<path d="M490.899 1143.81C484.242 1188.58 467.638 1312.32 474.098 1333.01L500.554 1328.56C500.554 1328.56 549.163 1216.76 560.206 1186.09C582.92 1122.98 609.211 1084.6 618.16 1054.98C646.147 962.383 680.918 660.37 680.918 660.37L542.68 653.517C528.778 676.89 522.716 715.223 521.278 758.81C517.64 868.81 532.31 996.036 536.174 1016.78C524.892 1035.34 503.407 1059.7 490.899 1143.81" fill="#1C468A"/>
<path d="M686.202 158.636C686.202 158.636 671.869 214.863 632.91 232.876C632.91 232.876 671.869 198.329 675.177 161.209C678.485 124.089 686.202 158.636 686.202 158.636Z" fill="#233862"/>
<path d="M515.985 708.636C515.747 713.303 515.999 717.023 516.845 719.69C519.787 728.943 529.888 733.17 554.308 730.636C569.233 729.09 575.888 704.076 578.855 682.73C587.82 713.263 600.372 730.396 616.597 733.996C640.272 739.263 759.7 753.783 767.513 697.01C776.113 634.57 750.365 524.01 748.952 464.396C752.461 443.263 753.661 424.916 753.283 409.156C752.285 366.69 739.821 342.89 730.239 333.303C727.524 331.223 724.809 329.93 713.912 328.05C708.344 327.103 700.629 326.01 689.695 324.57C689.695 324.57 685.233 324.063 685.333 324.236C687.353 327.85 714.404 368.81 712.296 379.33C710.085 390.356 614.16 380.436 607.543 374.37C600.927 368.316 590.459 321.863 590.459 321.863C590.459 321.863 556.493 325.583 539.876 337.663C539.876 337.663 539.939 337.743 540.053 337.876C538.045 339.316 536.543 340.85 535.684 342.476C517.956 376.223 500.253 461.41 487.803 522.17C517.981 538.796 544.347 533.85 552.528 531.65C541.833 601.623 517.577 676.756 515.985 708.636Z" fill="#F99746"/>
<path d="M630.737 1371.66H646.206C651.389 1370.85 655.214 1369.36 660.529 1368.66C668.6 1367.6 672.315 1370.9 673.054 1371.66L673.198 1371.82H738.912C740.566 1369.46 738.978 1364 737.424 1359.97C736.376 1357.24 734.094 1355.16 731.272 1354.34C724.302 1352.33 710.565 1350.53 697.985 1339.14C690.905 1332.74 663.803 1315.62 663.803 1315.62L663.659 1315.58C663.065 1315.6 660.232 1316.48 647.905 1326.88C641.532 1332.25 630.672 1319.29 630.672 1319.29C630.672 1319.29 628.631 1320.98 627.109 1324.12C625.886 1326.61 624.993 1330.01 625.698 1334.21C626.679 1340.13 623.516 1351.14 620.99 1358.58C619.457 1363.09 618.168 1366.29 618.168 1366.29C618.168 1366.29 617.429 1370 630.737 1371.66" fill="#233862"/>
<path d="M627.109 1324.12C630.804 1326.73 638.599 1331.85 643.769 1332.53C650.749 1333.44 663.804 1315.62 663.804 1315.62L663.66 1315.58C663.065 1315.6 660.232 1316.48 647.905 1326.88C641.532 1332.25 630.672 1319.29 630.672 1319.29C630.672 1319.29 628.632 1320.98 627.109 1324.12" fill="#466AA5"/>
<path d="M630.737 1371.66H646.206C651.389 1370.85 655.214 1369.36 660.529 1368.66C668.6 1367.6 672.315 1370.9 673.054 1371.66L673.198 1371.82H738.912C740.566 1369.46 738.978 1364 737.424 1359.97C735.429 1358.2 734.866 1367.68 733.763 1369.18C732.661 1370.7 680.154 1369.74 677.124 1367.53C674.092 1365.33 664.994 1361.46 652.315 1364.5C641.278 1367.13 625.014 1360.38 620.99 1358.58C619.457 1363.09 618.168 1366.29 618.168 1366.29C618.168 1366.29 617.429 1370 630.737 1371.66" fill="#466AA5"/>
<path d="M472.002 1371.66H487.472C492.654 1370.85 496.481 1369.36 501.794 1368.66C509.866 1367.6 513.581 1370.9 514.32 1371.66L514.464 1371.82H580.179C581.832 1369.46 580.244 1364 578.689 1359.97C577.643 1357.24 575.36 1355.16 572.537 1354.34C565.569 1352.33 551.831 1350.53 539.251 1339.14C532.172 1332.74 505.069 1315.62 505.069 1315.62L504.927 1315.58C504.331 1315.6 501.497 1316.48 489.171 1326.88C482.797 1332.25 471.937 1319.29 471.937 1319.29C471.937 1319.29 469.897 1320.98 468.376 1324.12C467.152 1326.61 466.258 1330.01 466.964 1334.21C467.945 1340.13 464.781 1351.14 462.256 1358.58C460.724 1363.09 459.433 1366.29 459.433 1366.29C459.433 1366.29 458.694 1370 472.002 1371.66" fill="#233862"/>
<path d="M468.377 1324.12C472.07 1326.73 479.866 1331.85 485.037 1332.53C492.016 1333.44 505.07 1315.62 505.07 1315.62L504.928 1315.58C504.332 1315.6 501.498 1316.48 489.172 1326.88C482.798 1332.25 471.938 1319.29 471.938 1319.29C471.938 1319.29 469.898 1320.98 468.377 1324.12" fill="#466AA5"/>
<path d="M472.002 1371.66H487.472C492.654 1370.85 496.481 1369.36 501.794 1368.66C509.866 1367.6 513.581 1370.9 514.32 1371.66L514.464 1371.82H580.179C581.832 1369.46 580.244 1364 578.689 1359.97C576.695 1358.2 576.132 1367.68 575.029 1369.18C573.927 1370.7 521.421 1369.74 518.389 1367.53C515.357 1365.33 506.261 1361.46 493.581 1364.5C482.544 1367.13 466.281 1360.38 462.256 1358.58C460.724 1363.09 459.433 1366.29 459.433 1366.29C459.433 1366.29 458.694 1370 472.002 1371.66Z" fill="#466AA5"/>
<path d="M515.986 708.636C532.389 703.156 553.438 688.596 578.717 655.929C645.64 569.436 584.4 467.782 576.192 465.889C567.985 463.996 552.529 531.649 552.529 531.649C541.834 601.622 517.578 676.756 515.986 708.636Z" fill="#EF7E29"/>
<path d="M726.134 331.37C726.134 331.37 771.954 354.423 787.221 447.49C787.221 447.49 772.221 468.063 751.074 474.13C748.054 474.996 744.908 475.57 741.664 475.743C715.706 477.13 726.134 331.37 726.134 331.37Z" fill="#F99746"/>
<path d="M880.353 720.33C880.353 720.33 906.1 741.49 905.46 751.143C904.806 760.796 890.006 777.543 880.353 776.89C870.686 776.25 865.326 730.756 865.326 730.756L880.353 720.33" fill="#FFB27D"/>
<path d="M1006.49 1368.84L1014.06 1367.29L885.421 734.156L877.848 735.689L1006.49 1368.84" fill="#163560"/>
<path d="M902.607 797.476L886.633 800.756L872.193 730.556L888.167 727.276L902.607 797.476Z" fill="#163560"/>
<path d="M676.764 250.116C676.764 250.116 678.034 255.516 691.452 254.676C691.452 254.676 702.718 253.983 702.374 248.049C702.374 248.049 691.45 243.836 676.764 250.116Z" fill="white"/>
<path d="M441.683 718.183C441.683 718.183 409.735 737.836 405.103 746.316C400.473 754.81 389.668 786.063 389.668 786.063C389.668 786.063 397.385 787.223 405.103 773.716C412.821 760.21 438.289 761.37 446.779 754.036C455.268 746.703 465.144 725.223 465.144 725.223L441.683 718.183" fill="#FFB27D"/>
<path d="M461.85 731.863C461.85 731.863 456.813 755.583 450.64 762.53C444.465 769.476 435.976 781.05 432.502 777.97C429.029 774.877 436.361 749.023 436.361 749.023L461.85 731.863Z" fill="#FFB27D"/>
<path d="M409.349 749.023C408.577 750.183 381.951 778.476 381.951 778.476C381.951 778.476 391.598 782.85 394.299 778.476C397.001 774.103 409.349 749.023 409.349 749.023Z" fill="#FFB27D"/>
<path d="M672.683 221.329H662.14C657.33 221.329 653.43 217.436 653.43 212.622V209.369C653.43 206.956 655.388 204.996 657.803 204.996H678.423C680.006 204.996 681.288 206.276 681.288 207.862V212.729C681.288 217.476 677.435 221.329 672.683 221.329" fill="#163560"/>
<path d="M704.113 221.329H714.656C719.467 221.329 723.367 217.436 723.367 212.622V209.369C723.367 206.956 721.408 204.996 718.993 204.996H698.374C696.79 204.996 695.508 206.276 695.508 207.862V212.729C695.508 217.476 699.36 221.329 704.113 221.329" fill="#163560"/>
<path d="M698.434 212.05C698.345 212.01 689.362 208.143 680.774 212.05L680.129 210.636C689.37 206.423 698.674 210.45 699.065 210.636L698.434 212.05Z" fill="#163560"/>
</svg>
