<svg width="1076" height="1323" viewBox="0 0 1076 1323" fill="none" xmlns="http://www.w3.org/2000/svg">
<path d="M597.089 569.629C594.663 569.629 592.329 568.242 591.249 565.909L569.582 519.402H497.716C494.169 519.402 491.289 516.522 491.289 512.962C491.289 509.416 494.169 506.522 497.716 506.522H573.676C576.182 506.522 578.462 507.976 579.516 510.242L602.916 560.469C604.409 563.682 603.022 567.522 599.796 569.016C598.916 569.429 597.996 569.629 597.089 569.629" fill="#233862"/>
<path d="M550.982 522.669H495.768C490.422 522.669 486.035 518.296 486.035 512.949C486.035 507.589 490.422 503.216 495.768 503.216H550.982C556.328 503.216 560.715 507.589 560.715 512.949C560.715 518.296 556.328 522.669 550.982 522.669Z" fill="#233862"/>
<path d="M494.795 492.762C496.595 494.135 528.635 490.068 538.942 496.575C549.262 503.082 559.155 521.122 554.528 527.575C549.902 534.015 527.995 514.668 521.542 515.002C515.102 515.322 496.595 509.602 496.595 509.602L494.795 492.762" fill="#FFB27D"/>
<path d="M504.581 490.202C504.581 490.202 507.928 496.028 507.875 501.108C507.768 509.668 504.581 513.748 504.581 513.748C504.581 513.748 465.835 516.842 424.115 510.815C400.928 507.468 376.821 501.295 357.955 490.202C332.328 475.135 308.528 421.495 290.808 370.282C272.021 315.988 260.088 264.415 260.088 264.415C268.808 243.295 291.901 230.575 311.328 233.695C321.981 235.402 346.955 243.615 352.608 251.042C361.275 262.428 385.741 366.362 404.955 415.548C409.181 426.348 504.581 490.202 504.581 490.202" fill="#F9DDBF"/>
<path d="M424.116 510.815C400.929 507.469 376.823 501.295 357.956 490.202C332.329 475.135 308.529 421.495 290.809 370.282C290.529 333.295 290.529 302.762 290.529 302.762L332.489 320.162C333.769 322.735 347.316 449.709 377.596 475.482C403.329 497.375 419.756 508.082 424.116 510.815" fill="#EAC3A2"/>
<path d="M962.995 1248.88C959.795 1247.95 956.409 1247.44 952.915 1247.44C949.409 1247.44 946.022 1247.95 942.822 1248.88V830.335H962.995V1248.88Z" fill="#C3CEDC"/>
<path d="M955.195 1318.98H950.635C931.915 1317.8 917.115 1302.26 917.115 1283.24C917.115 1266.98 927.969 1253.24 942.822 1248.88V1251.95H962.995V1248.88C977.862 1253.24 988.715 1266.98 988.715 1283.24C988.715 1302.26 973.902 1317.8 955.195 1318.98M952.915 1270.95C946.129 1270.95 940.622 1276.46 940.622 1283.24C940.622 1290.04 946.129 1295.54 952.915 1295.54C959.702 1295.54 965.208 1290.04 965.208 1283.24C965.208 1276.46 959.702 1270.95 952.915 1270.95Z" fill="#C3CEDC"/>
<path d="M952.915 1319.04C952.141 1319.04 951.381 1319.03 950.635 1318.98H955.195C954.435 1319.03 953.675 1319.04 952.915 1319.04" fill="#2C3655"/>
<path d="M962.995 1251.95H942.822V1248.88C946.022 1247.95 949.409 1247.44 952.915 1247.44C956.409 1247.44 959.795 1247.95 962.995 1248.88V1251.95Z" fill="#A3B0C4"/>
<path d="M952.916 1295.54C946.13 1295.54 940.623 1290.04 940.623 1283.24C940.623 1276.46 946.13 1270.95 952.916 1270.95C959.703 1270.95 965.21 1276.46 965.21 1283.24C965.21 1290.04 959.703 1295.54 952.916 1295.54Z" fill="#EEE1D6"/>
<path d="M443.448 569.629C441.022 569.629 438.702 568.242 437.608 565.909L415.942 519.402H344.088C340.528 519.402 337.648 516.522 337.648 512.962C337.648 509.416 340.528 506.522 344.088 506.522H420.048C422.555 506.522 424.822 507.976 425.888 510.242L449.275 560.469C450.782 563.682 449.382 567.522 446.168 569.016C445.288 569.429 444.355 569.629 443.448 569.629" fill="#233862"/>
<path d="M723.556 1296.62C722.756 1296.42 721.956 1296.22 721.156 1296C724.836 1279.11 738.449 1228.98 753.609 1174.35C754.436 1174.59 755.276 1174.79 756.129 1174.94C740.489 1231.28 726.956 1281.08 723.556 1296.62M767.596 1133.8C766.796 1133.48 765.983 1133.22 765.129 1133C780.303 1078.79 794.956 1027.16 801.116 1005.52C801.943 1005.75 802.769 1006 803.583 1006.24C794.463 1038.34 780.969 1086.04 767.596 1133.8" fill="#C5D3E8"/>
<path d="M904.902 1190.92C873.462 1181.99 827.475 1168.98 781.155 1156.02C781.235 1155.28 781.275 1154.55 781.275 1153.8C781.275 1153.64 781.275 1153.5 781.262 1153.35C833.835 1168.07 883.622 1182.19 905.582 1188.44C905.368 1189.27 905.142 1190.1 904.902 1190.92M740.408 1144.64C681.302 1128.22 628.769 1113.94 614.422 1110.94C614.649 1110.15 614.862 1109.35 615.089 1108.56C631.169 1111.94 684.342 1126.38 741.689 1142.31C741.209 1143.06 740.782 1143.84 740.408 1144.64Z" fill="#C5D3E8"/>
<path d="M878.489 1243.07C853.222 1222.95 816.209 1193.54 778.742 1163.92C779.155 1163.14 779.529 1162.34 779.849 1161.5C822.489 1195.2 862.596 1227.12 880.049 1241.03C879.542 1241.72 879.009 1242.4 878.489 1243.07ZM745.569 1137.75C697.502 1099.92 654.369 1066.35 641.436 1057.35C641.956 1056.7 642.462 1056.06 642.982 1055.42C657.289 1065.36 700.982 1099.36 747.662 1136.11C746.929 1136.62 746.236 1137.16 745.569 1137.75" fill="#C5D3E8"/>
<path d="M610.782 1172.31C610.648 1171.47 610.529 1170.62 610.422 1169.76C627.182 1167.43 680.542 1160 738.422 1152.18C738.382 1152.71 738.355 1153.26 738.355 1153.8C738.355 1154.14 738.368 1154.46 738.382 1154.79C689.528 1161.39 641.728 1167.99 610.782 1172.31M780.755 1149.1C780.569 1148.24 780.315 1147.4 780.022 1146.58C834.715 1139.3 886.635 1132.62 909.128 1130.46C909.235 1131.28 909.342 1132.1 909.435 1132.92C887.982 1135.04 836.769 1141.63 780.755 1149.1" fill="#C5D3E8"/>
<path d="M816.102 1290.12C804.302 1260.31 787.048 1216.87 769.475 1172.96C770.248 1172.58 771.008 1172.12 771.728 1171.64C791.688 1221.5 810.288 1268.43 818.475 1289.14C817.688 1289.47 816.902 1289.79 816.102 1290.12M753.541 1133.27C730.448 1075.91 709.528 1024.75 702.941 1010.91C703.701 1010.6 704.462 1010.3 705.235 1009.99C712.555 1025.36 733.702 1077.07 756.088 1132.67C755.222 1132.82 754.368 1133.02 753.541 1133.27" fill="#C5D3E8"/>
<path d="M642.302 1244.54C641.768 1243.87 641.235 1243.19 640.715 1242.51C656.982 1229.9 697.662 1198.38 741.368 1164.76C741.808 1165.51 742.302 1166.23 742.835 1166.91C704.782 1196.16 667.408 1225.06 642.302 1244.54ZM776.875 1140.78C776.341 1140.1 775.782 1139.43 775.168 1138.82C820.915 1103.79 863.995 1071.15 880.181 1059.94C880.688 1060.59 881.168 1061.26 881.661 1061.92C866.528 1072.46 823.915 1104.75 776.875 1140.78" fill="#C5D3E8"/>
<path d="M759.809 1175.25C758.555 1175.25 757.329 1175.15 756.129 1174.93C755.275 1174.79 754.435 1174.59 753.609 1174.35C749.275 1173.04 745.529 1170.4 742.835 1166.91C742.302 1166.23 741.809 1165.51 741.369 1164.76C739.609 1161.81 738.542 1158.43 738.382 1154.79C738.369 1154.45 738.355 1154.13 738.355 1153.8C738.355 1153.25 738.382 1152.71 738.422 1152.17C738.622 1149.49 739.315 1146.96 740.409 1144.64C740.782 1143.84 741.209 1143.05 741.689 1142.31C742.769 1140.61 744.075 1139.08 745.569 1137.75C746.235 1137.16 746.929 1136.61 747.662 1136.11C749.449 1134.88 751.422 1133.92 753.542 1133.27C754.369 1133.01 755.222 1132.81 756.089 1132.67C757.302 1132.45 758.542 1132.33 759.809 1132.33C761.649 1132.33 763.435 1132.57 765.129 1133C765.982 1133.21 766.795 1133.48 767.595 1133.8C770.475 1134.92 773.062 1136.64 775.169 1138.81C775.782 1139.43 776.342 1140.09 776.875 1140.77C778.209 1142.52 779.275 1144.48 780.022 1146.57C780.315 1147.4 780.569 1148.24 780.755 1149.09C781.062 1150.47 781.235 1151.89 781.262 1153.35C781.275 1153.49 781.275 1153.64 781.275 1153.8C781.275 1154.55 781.235 1155.28 781.155 1156.01C780.969 1157.92 780.515 1159.76 779.849 1161.49C779.529 1162.33 779.155 1163.13 778.742 1163.92C777.075 1167.03 774.649 1169.68 771.729 1171.64C771.009 1172.12 770.249 1172.57 769.475 1172.96C766.569 1174.43 763.289 1175.25 759.809 1175.25" fill="#EEE1D6"/>
<path d="M764.77 1318.98H754.863C664.143 1316.35 591.156 1241.74 591.156 1150.39C591.156 1057.4 666.823 981.736 759.809 981.736C852.809 981.736 928.476 1057.4 928.476 1150.39C928.476 1241.74 855.49 1316.35 764.77 1318.98M723.556 1296.62C735.17 1299.5 747.316 1301.03 759.809 1301.03C779.703 1301.03 798.703 1297.15 816.103 1290.12C816.903 1289.79 817.689 1289.47 818.476 1289.14C842.196 1279.07 862.81 1263.1 878.49 1243.07C879.01 1242.4 879.543 1241.72 880.049 1241.03C891.249 1226.22 899.783 1209.27 904.903 1190.92C905.143 1190.1 905.369 1189.27 905.583 1188.44C908.756 1176.28 910.449 1163.54 910.449 1150.39C910.449 1144.48 910.103 1138.66 909.436 1132.92C909.343 1132.1 909.236 1131.28 909.129 1130.46C905.769 1105.1 896.063 1081.7 881.663 1061.92C881.169 1061.26 880.689 1060.59 880.183 1059.94C861.196 1034.72 834.476 1015.64 803.583 1006.24C802.769 1006 801.943 1005.75 801.116 1005.52C787.983 1001.78 774.129 999.762 759.809 999.762C740.583 999.762 722.17 1003.39 705.236 1009.99C704.463 1010.3 703.703 1010.6 702.943 1010.91C679.396 1020.55 658.823 1035.98 642.983 1055.42C642.463 1056.06 641.956 1056.7 641.436 1057.35C629.596 1072.38 620.556 1089.71 615.09 1108.56C614.863 1109.35 614.65 1110.15 614.423 1110.94C611.01 1123.52 609.183 1136.75 609.183 1150.39C609.183 1156.95 609.61 1163.42 610.423 1169.76C610.53 1170.62 610.649 1171.47 610.783 1172.31C614.609 1198.48 625.196 1222.5 640.716 1242.51C641.236 1243.19 641.77 1243.87 642.303 1244.54C662.156 1269.27 689.65 1287.63 721.156 1296C721.956 1296.22 722.756 1296.42 723.556 1296.62" fill="#C3CEDC"/>
<path d="M759.808 1319.04C758.168 1319.04 756.515 1319.03 754.861 1318.98H764.768C763.115 1319.03 761.461 1319.04 759.808 1319.04Z" fill="#2C3655"/>
<path d="M397.342 522.669H342.142C336.782 522.669 332.408 518.296 332.408 512.949C332.408 507.589 336.782 503.216 342.142 503.216H397.342C402.702 503.216 407.075 507.589 407.075 512.949C407.075 518.296 402.702 522.669 397.342 522.669Z" fill="#233862"/>
<path d="M884.823 791.388C884.823 791.388 916.049 794.602 919.916 798.895C923.769 803.188 937.929 826.642 938.369 831.002C938.796 835.375 938.476 843.415 935.249 842.135C932.036 840.842 918.542 819.388 911.702 819.068C904.862 818.735 882.982 809.588 882.982 809.588L884.823 791.388Z" fill="#ED985F"/>
<path d="M852.129 958.189L561.609 961.176L430.902 552.629L699.622 549.642L852.129 958.189" fill="#2B478B"/>
<path d="M758.341 570.455C758.341 570.455 764.101 720.668 778.088 735.615C787.128 745.268 884.821 791.388 884.821 791.388L883.835 809.802C883.835 809.802 756.768 791.815 738.035 769.148C701.061 724.402 698.621 602.442 696.835 589.482C695.035 576.522 732.181 550.522 758.341 570.455" fill="#ED985F"/>
<path d="M1044.34 1205.98H947.101C947.101 1205.98 943.461 1190.47 949.848 1179.91C955.501 1170.58 953.328 1165.26 949.155 1157.54C953.555 1159.34 959.248 1160.98 965.528 1160.62C970.368 1160.34 975.488 1158.14 979.981 1155.54C984.168 1160.3 1002.09 1180.62 1007.69 1184.63C1014.05 1189.2 1042.38 1187.58 1044.34 1205.98Z" fill="#1A3670"/>
<path d="M596.036 850.376C602.503 889.322 637.036 917.362 676.503 916.882C725.463 916.296 796.969 915.322 823.183 914.336C878.743 912.242 899.609 914.482 899.449 916.056C896.956 939.389 894.903 929.429 920.783 927.616C920.783 927.616 1012.33 925.029 984.942 862.402C957.556 799.776 697.476 780.256 674.489 782.976C654.943 785.282 585.996 790.042 596.036 850.376" fill="#ED7D2B"/>
<path d="M989.916 886.975C988.742 931.242 981.876 1053.94 999.116 1152.47C1003.49 1177.46 967.636 1178.23 967.382 1178.26C960.569 1179.07 948.609 1179.66 944.636 1174.72C916.969 1140.39 877.929 981.095 888.542 914.948C893.716 882.695 925.876 883.268 951.836 871.375C967.836 864.055 990.382 869.388 989.916 886.975" fill="#ED7D2B"/>
<path d="M510.77 1157.42H530.943V820.922H510.77V1157.42Z" fill="#233862"/>
<path d="M665.222 301.855C693.689 294.042 724.249 301.028 746.742 320.135C756.662 328.562 767.622 339.175 777.875 351.868C803.262 383.335 760.129 418.402 766.742 429.175C773.369 439.962 787.742 447.935 783.009 471.495C778.275 495.055 739.995 527.482 727.022 529.575C595.582 550.762 534.009 481.162 575.942 439.322C617.889 397.482 596.569 341.522 631.182 317.308C641.875 309.842 653.822 304.988 665.222 301.855Z" fill="#233862"/>
<path d="M762.702 559.629C752.209 567.842 738.849 574.895 721.862 579.855C658.195 598.482 630.329 545.362 618.889 508.455C627.395 502.909 635.622 501.335 640.369 500.482C644.995 499.669 649.889 499.015 653.929 498.575C660.862 492.615 670.355 469.282 670.715 433.882L673.795 434.509L725.449 445.509C725.449 445.509 724.049 461.815 723.782 477.162C723.595 489.162 724.102 500.602 726.529 503.269C730.089 504.269 733.275 505.362 733.275 505.362C734.048 506.495 734.089 505.989 733.835 505.602C734.582 506.682 749.889 528.869 762.702 559.629" fill="#FFB27D"/>
<path d="M725.448 445.522C725.448 445.522 724.048 461.802 723.795 477.162C694.808 475.935 679.862 449.269 673.795 434.522L725.448 445.522Z" fill="#ED985F"/>
<path d="M734.928 460.202C734.928 460.202 666.328 460.362 666.875 417.629C667.435 374.909 658.955 346.149 702.782 344.242C746.608 342.335 754.902 358.749 758.195 373.056C761.475 387.362 752.782 459.055 734.928 460.202" fill="#FFB27D"/>
<path d="M756.489 349.269C746.063 336.269 738.023 338.975 733.476 342.775C696.276 321.642 671.689 351.762 671.689 351.762C666.663 382.362 644.303 399.602 644.303 399.602C644.303 399.602 656.983 408.602 685.623 400.509C722.263 390.135 733.156 357.229 734.609 352.175C738.743 356.002 743.929 358.282 748.303 366.829C753.489 376.989 756.716 382.869 757.783 399.975C757.783 399.975 772.116 368.775 756.489 349.269" fill="#233862"/>
<path d="M1075.69 1204.47H831.85V1224.23H1075.69V1204.47Z" fill="#233862"/>
<path d="M566.156 850.376C572.636 889.322 607.157 917.362 646.623 916.882C695.583 916.296 767.09 915.322 793.303 914.336C848.863 912.242 869.743 914.482 869.57 916.056C867.077 939.389 865.023 929.429 890.916 927.616C890.916 927.616 982.45 925.029 955.063 862.402C927.676 799.776 667.596 780.256 644.61 782.976C625.076 785.282 556.13 790.042 566.156 850.376" fill="#F99746"/>
<path d="M565.862 720.362C570.528 688.482 559.182 567.762 584.395 530.029C602.635 502.749 627.928 491.989 659.141 491.469C669.181 497.176 707.461 518.682 722.461 514.869C722.621 514.816 722.915 514.736 723.288 514.616C730.328 512.416 732.741 507.242 726.528 503.269C726.528 503.256 752.102 508.789 760.048 517.802C767.675 526.469 767.328 545.056 769.768 566.962C770.368 572.389 770.462 577.856 771.115 583.282C774.128 607.922 766.182 610.589 739.035 681.696C725.755 716.456 731.982 744.216 740.835 762.696C748.782 779.282 743.221 799.162 727.675 809.002C674.075 842.935 569.835 901.976 566.155 850.376C562.435 798.016 559.422 764.402 565.862 720.362Z" fill="#F9DDBF"/>
<path d="M656.835 565.802C656.835 565.802 682.595 740.602 699.755 755.416C710.848 764.976 821.088 782.722 821.088 782.722L822.902 799.722C822.902 799.722 665.622 811.269 656.622 798.149C620.302 745.149 594.888 608.042 591.382 593.989C587.888 579.936 625.702 546.936 656.835 565.802" fill="#FFB27D"/>
<path d="M1014.46 1204.67H917.223C917.223 1204.67 913.596 1189.16 919.97 1178.6C925.623 1169.27 923.463 1163.95 919.276 1156.22C923.676 1158.03 929.383 1159.67 935.649 1159.31C940.503 1159.03 945.623 1156.83 950.116 1154.22C954.303 1158.99 972.223 1179.3 977.823 1183.32C984.17 1187.9 1012.5 1186.27 1014.46 1204.67" fill="#2B478B"/>
<path d="M960.036 886.975C958.863 931.242 952.01 1053.94 969.25 1152.47C973.623 1177.46 937.756 1178.23 937.503 1178.26C930.69 1179.07 918.743 1179.66 914.756 1174.72C887.103 1140.39 848.05 981.095 858.663 914.948C863.85 882.695 895.996 883.268 921.97 871.375C937.956 864.055 960.503 869.388 960.036 886.975" fill="#F99746"/>
<path d="M746.329 434.989C746.329 434.989 739.716 432.802 721.609 435.322C721.609 435.322 722.983 442.375 736.436 442.295C744.063 442.255 746.329 434.989 746.329 434.989Z" fill="white"/>
<path d="M681.302 618.228C681.302 618.228 634.689 658.628 580.489 644.828C580.489 644.828 560.955 514.402 628.808 512.602C628.808 512.602 685.022 534.882 681.302 618.228" fill="#F9DDBF"/>
<path d="M856.888 960.176H530.941V934.522H856.888V960.176Z" fill="#233862"/>
<path d="M831.849 1224.23L855.155 1210.78L695.662 934.522L672.342 947.975L831.849 1224.23" fill="#233862"/>
<path d="M530.941 934.522C536.888 934.522 559.528 913.189 595.035 914.336C630.555 915.482 828.688 914.282 828.688 914.282C828.688 914.282 854.555 911.576 856.981 934.522H530.941" fill="#2D53A0"/>
<path d="M828.689 1251.95H848.863V830.335H828.689V1251.95Z" fill="#233862"/>
<path d="M821.088 782.722C821.088 782.722 855.968 784.736 859.821 789.029C863.688 793.309 877.848 816.776 878.274 821.136C878.701 825.496 878.381 833.549 875.168 832.256C871.941 830.976 858.595 807.802 851.755 807.482C844.915 807.149 822.901 799.722 822.901 799.722L821.088 782.722" fill="#FFB27D"/>
<path d="M498.115 842.269H878.342C878.342 818.922 859.422 800.002 836.075 800.002H523.289C509.382 800.002 498.115 811.282 498.115 825.189V842.269" fill="#233862"/>
<path d="M481.248 1301.9C479.755 1295.16 555.728 1028.08 564.395 997.656L566.875 998.362C543.595 1080.1 483.275 1293.9 483.782 1301.4L481.248 1301.9Z" fill="#2D53A0"/>
<path d="M371.342 1107.84C378.062 1106.35 645.142 1182.32 675.568 1190.99L674.862 1193.47C593.128 1170.18 379.328 1109.87 371.822 1110.36L371.342 1107.84" fill="#2D53A0"/>
<path d="M399.303 1052.5C406.09 1053.71 623.223 1226.78 647.97 1246.51L646.356 1248.52C579.916 1195.52 405.903 1057.46 398.77 1055.02L399.303 1052.5" fill="#2D53A0"/>
<path d="M681.769 1129.84C675.315 1127.43 400.288 1165.74 368.955 1170.11L369.315 1172.67C453.488 1160.91 673.568 1130.74 680.942 1132.27L681.769 1129.84Z" fill="#2D53A0"/>
<path d="M463.783 1005.44C469.063 1009.87 571.21 1268.08 582.836 1297.51L580.436 1298.46C549.21 1219.42 467.05 1013.03 462.076 1007.36L463.783 1005.44Z" fill="#2D53A0"/>
<path d="M647.823 1055.84C641.023 1056.96 421.596 1227.12 396.596 1246.51L398.169 1248.55C465.316 1196.44 641.156 1060.7 648.316 1058.36L647.823 1055.84" fill="#2D53A0"/>
<path d="M499.408 1153.8C499.408 1141.95 509.008 1132.33 520.861 1132.33C532.715 1132.33 542.315 1141.95 542.315 1153.8C542.315 1165.64 532.715 1175.25 520.861 1175.25C509.008 1175.25 499.408 1165.64 499.408 1153.8Z" fill="#F99746"/>
<path d="M370.222 1150.39C370.222 1233.46 437.796 1301.03 520.862 1301.03C603.916 1301.03 671.489 1233.46 671.489 1150.39C671.489 1067.34 603.916 999.762 520.862 999.762C437.796 999.762 370.222 1067.34 370.222 1150.39ZM352.209 1150.39C352.209 1057.4 427.862 981.736 520.862 981.736C613.862 981.736 689.516 1057.4 689.516 1150.39C689.516 1243.39 613.862 1319.06 520.862 1319.06C427.862 1319.06 352.209 1243.39 352.209 1150.39" fill="#233862"/>
<path d="M874.582 1283.24C874.582 1263.47 858.556 1247.44 838.782 1247.44C819.009 1247.44 802.982 1263.47 802.982 1283.24C802.982 1303.02 819.009 1319.06 838.782 1319.06C858.556 1319.06 874.582 1303.02 874.582 1283.24Z" fill="#233862"/>
<path d="M826.488 1283.24C826.488 1276.46 831.995 1270.95 838.782 1270.95C845.568 1270.95 851.075 1276.46 851.075 1283.24C851.075 1290.04 845.568 1295.54 838.782 1295.54C831.995 1295.54 826.488 1290.04 826.488 1283.24Z" fill="#F99746"/>
<path d="M158.755 287.602C153.928 278.295 264.048 244.775 265.795 336.642C265.795 336.642 472.075 331.575 373.581 216.588C339.475 176.788 342.995 143.882 344.008 113.242C345.048 82.6016 322.768 -6.45163 246.421 2.5217C246.421 2.5217 226.421 -5.61169 201.461 7.33498C144.715 36.775 17.5813 321.482 158.755 287.602Z" fill="#163560"/>
<path d="M19.1829 1214.64C19.1829 1214.64 -3.9238 1235.73 0.582862 1250.73C5.08953 1265.72 25.9562 1275.71 28.7696 1294.03C31.5962 1312.35 42.8629 1322.33 53.0096 1322.33C63.1562 1322.33 101.396 1322.33 101.396 1322.33C101.396 1322.33 108.863 1309.45 90.8228 1305.56C72.7828 1301.68 65.9829 1280.15 67.1029 1260.16C68.2362 1240.17 65.4228 1213.53 65.4228 1213.53L27.0762 1204.65L19.1829 1214.64" fill="#233862"/>
<path d="M214.835 1223.6C214.835 1223.6 206.542 1314.06 216.688 1319.06H347.688C347.688 1319.06 346.542 1302.71 325.675 1299.38C304.822 1296.04 268.169 1283.83 261.969 1256.63C255.769 1229.43 214.835 1223.6 214.835 1223.6" fill="#233862"/>
<path d="M122.289 582.469C149.009 522.536 165.369 505.336 162.236 486.722C159.916 472.882 169.316 228.576 169.316 228.576C172.489 227.589 178.849 226.709 182.316 225.936C193.276 223.509 202.356 215.802 206.129 205.229C210.676 192.496 214.302 173.682 214.209 150.109L217.636 150.789L275.196 162.176C275.196 162.176 273.889 180.296 273.849 197.362C273.849 197.509 273.849 197.642 273.849 197.789C273.782 212.602 283.503 225.696 297.743 229.802C305.009 231.896 311.343 233.696 311.343 233.696C311.343 233.696 332.476 294.042 336.516 356.029C340.556 418.029 298.076 444.962 336.836 568.842C376.409 695.375 107.516 615.589 122.289 582.469" fill="#FFB27D"/>
<path d="M275.195 162.176C275.195 162.176 273.888 180.296 273.848 197.362C241.635 196.456 224.608 167.069 217.635 150.789L275.195 162.176Z" fill="#E8945B"/>
<path d="M285.956 178.336C285.956 178.336 209.743 179.602 209.69 132.122C209.636 84.6557 199.77 52.8423 248.423 50.029C297.09 47.2157 306.556 65.3223 310.436 81.1756C314.303 97.0023 305.783 176.789 285.956 178.336Z" fill="#FFB27D"/>
<path d="M283.142 48.8682C283.142 48.8682 262.275 104.562 230.248 112.802C198.222 121.028 184.328 112.455 184.328 112.455C184.328 112.455 208.888 92.935 213.995 58.8817C213.995 58.8817 267.395 22.3616 283.142 48.8682Z" fill="#163560"/>
<path d="M277.969 53.3887C277.969 53.3887 293.435 59.1754 299.809 70.4554C306.035 81.4954 311.342 96.1087 310.102 114.042C310.102 114.042 325.835 76.1887 308.155 54.7753C289.422 32.0687 277.969 53.3887 277.969 53.3887Z" fill="#163560"/>
<path d="M269.369 148.895C269.369 148.895 274.636 155.815 285.156 155.308C293.636 154.908 296.902 147.562 296.902 147.562C296.902 147.562 281.329 143.815 269.369 148.895Z" fill="#EBF3FA"/>
<path d="M325.689 475.616L250.076 498.202L226.103 492.322L157.916 475.616C157.916 475.616 149.102 472.669 141.289 454.642C139.809 451.242 137.142 440.842 134.356 428.549C131.276 414.909 128.076 398.922 126.276 387.616C123.636 370.989 118.329 350.282 113.716 327.975V327.962C110.329 311.642 107.316 294.469 105.956 277.389C104.129 254.296 120.982 233.922 144.009 231.362L169.316 228.562C249.649 294.096 311.342 233.696 311.342 233.696C311.342 233.696 332.476 271.269 346.303 325.375C360.129 379.482 325.689 475.616 325.689 475.616" fill="#F9DDBF"/>
<path d="M320.889 490.202C320.889 490.202 358.329 606.748 360.729 646.428C363.129 686.108 289.156 1210.12 286.182 1228.41C283.369 1245.64 261.969 1256.63 261.969 1256.63C261.969 1256.63 252.129 1262.44 238.076 1258.47C218.596 1252.96 212.436 1246.37 212.436 1246.37C212.436 1246.37 183.289 872.655 201.316 739.148C219.356 605.655 219.569 490.202 219.569 490.202H320.889" fill="#ED7D2B"/>
<path d="M162.236 486.722C162.236 486.722 105.129 563.362 99.7961 615.162C94.4761 666.975 91.4495 848.935 80.1029 899.442C68.7562 949.949 27.0762 1047.14 27.0762 1204.66C27.0762 1204.66 31.4094 1213.68 44.7961 1218.5C49.0628 1220.03 54.7962 1221.52 60.3695 1222.79C71.3962 1225.32 82.7162 1219.94 87.7428 1209.8C115.929 1153.07 205.689 970.082 210.289 932.095C213.543 905.215 241.89 727.309 303.703 622.922C318.543 597.856 294.596 498.189 294.596 498.189L162.236 486.722" fill="#F99746"/>
<path d="M271.062 150.162C271.062 150.162 272.383 155.749 286.303 154.896C286.303 154.896 297.983 154.176 297.636 148.016C297.636 148.016 286.302 143.642 271.062 150.162Z" fill="white"/>
<path d="M326.862 472.202C326.862 472.202 311.835 484.096 281.969 484.696C246.302 485.416 157.915 475.602 157.915 475.602C157.915 475.602 153.995 486.576 154.155 498.162C154.155 498.162 262.102 525.389 324.635 502.136C324.635 502.136 332.702 486.962 326.862 472.202Z" fill="#233862"/>
<path d="M279.648 497.016C279.648 504.202 284.528 510.042 290.528 510.042C296.528 510.042 301.408 504.202 301.408 497.016C301.408 489.829 296.528 483.989 290.528 483.989C284.528 483.989 279.648 489.829 279.648 497.016ZM274.248 497.016C274.248 486.856 281.555 478.602 290.528 478.602C299.501 478.602 306.808 486.856 306.808 497.016C306.808 507.176 299.501 515.442 290.528 515.442C281.555 515.442 274.248 507.176 274.248 497.016Z" fill="white"/>
<path d="M198.569 472.216C169.409 457.282 148.769 442.562 134.356 428.549C131.276 414.909 128.076 398.922 126.276 387.616C123.636 370.989 114.449 329.856 109.836 307.536L231.262 482.456C231.262 482.456 236.729 491.722 198.569 472.216Z" fill="#EAC3A2"/>
<path d="M241.568 355.642C241.568 355.642 295.568 441.389 311.222 456.789C326.862 472.202 247.355 444.549 247.355 444.549L241.568 355.642" fill="#EAC3A2"/>
<path d="M364.383 493.215C366.183 494.575 398.223 490.509 408.543 497.015C418.85 503.522 428.743 521.562 424.116 528.015C419.489 534.455 397.583 515.109 391.129 515.442C384.689 515.762 366.183 510.042 366.183 510.042L364.383 493.215Z" fill="#FFB27D"/>
<path d="M109.836 307.535C109.836 307.535 166.769 459.162 219.569 490.202C272.369 521.242 366.183 513.735 366.183 513.735C366.183 513.735 368.903 509.575 369.649 500.735C370.023 496.349 366.183 490.202 366.183 490.202C366.183 490.202 270.783 426.349 266.569 415.549C247.356 366.349 219.516 303.402 207.916 295.029C196.316 286.642 122.863 275.962 109.836 307.535Z" fill="#F9DDBF"/>
</svg>
